<svg width="196" height="249" viewBox="0 0 196 249" fill="none" xmlns="http://www.w3.org/2000/svg">
<path d="M191.19 63.4784C191.19 63.4784 190.54 91.3455 149.337 117.413C149.321 117.424 149.971 89.5571 191.19 63.4784Z" fill="black" fill-opacity="0.15"/>
<path d="M189.52 185.88C189.52 185.88 157.577 170.036 149.294 117.324C149.306 117.339 185.857 133.448 189.52 185.88Z" fill="black" fill-opacity="0.15"/>
<path d="M128.288 22.7703C128.288 22.7703 158.151 48.7321 149.302 117.366C149.317 117.355 119.466 91.4085 128.288 22.7703Z" fill="black" fill-opacity="0.15"/>
<path d="M54.1767 66.5411C54.1767 66.5411 100.302 55.1154 149.47 117.266C149.47 117.266 103.119 115.285 54.1767 66.5411Z" fill="black" fill-opacity="0.15"/>
<path d="M139.038 213.322C139.038 213.322 117.366 178.76 149.175 117.194C149.175 117.194 162.939 166.488 139.038 213.322Z" fill="black" fill-opacity="0.15"/>
<path d="M70.1698 201.607C70.1698 201.607 79.9984 153.345 149.325 117.397C149.297 117.393 115.24 174.181 70.1698 201.607Z" fill="black" fill-opacity="0.15"/>
<path d="M27.1944 140.432C27.1944 140.432 60.3693 96.9529 149.279 117.335C149.263 117.346 106.229 148.936 27.1944 140.432Z" fill="black" fill-opacity="0.15"/>
<path d="M230.031 124.571C223.162 122.287 216.242 120.522 209.216 119.005C202.202 117.504 195.118 116.366 187.993 115.597C180.864 114.855 173.688 114.606 166.513 114.814C159.349 115.135 152.21 116.112 145.225 117.819L145.552 119.145C152.443 117.603 159.487 116.793 166.561 116.611C173.631 116.553 180.716 116.942 187.743 117.807C194.762 118.726 201.744 119.987 208.645 121.596C215.515 123.229 222.399 125.14 228.995 127.48L230.031 124.571Z" fill="black" fill-opacity="0.15"/>
</svg>
