<svg width="312" height="229" viewBox="0 0 312 229" fill="none" xmlns="http://www.w3.org/2000/svg">
<path d="M-39.498 224.734C-22.1915 202.226 -2.85027 181.268 18.6937 162.762C29.3415 153.374 40.8262 144.965 52.542 137.009C64.3819 129.187 76.7893 122.223 89.531 115.997C115.165 103.932 142.529 95.397 170.614 91.6366C184.657 89.7565 198.821 89.0395 212.96 89.4643C227.073 90.0021 241.209 91.456 254.95 95.0829L254.711 95.9532C241.106 92.5693 226.956 91.3371 212.939 91.0099C198.896 90.7954 184.826 91.723 170.952 93.8059C143.163 97.9394 116.237 106.796 91.0688 119.106C78.5564 125.418 66.4547 132.496 54.8803 140.401C43.4301 148.439 32.2073 156.895 21.8575 166.324C0.909635 184.915 -17.9157 205.892 -34.6376 228.375L-39.498 224.734Z" fill="#2E3617" fill-opacity="0.15"/>
<path d="M299.27 86.1979C292.579 85.3945 285.848 83.8604 279.272 84.8455C266.805 86.707 257.251 93.2233 257.251 93.2233C257.251 93.2233 255.565 93.9516 252.686 95.5404C256.221 94.9484 259.719 94.3603 263.25 93.7319C275.206 91.5566 281.146 87.6618 299.27 86.1979Z" fill="#2E3617" fill-opacity="0.15"/>
<path d="M211.518 88.9903C220.381 89.1612 228.397 92.1035 235.764 95.8491C243.103 99.6712 249.818 104.551 255.739 110.249C261.591 115.991 266.846 122.348 270.941 129.524C275.067 136.66 278.235 144.448 279.442 153.141C271.626 148.965 265.495 144.06 259.412 139.261C253.531 134.293 247.804 129.383 242.477 124.1C237.086 118.898 231.824 113.534 226.677 107.865C221.555 102.083 216.563 96.1401 211.518 88.9903Z" fill="#2E3617" fill-opacity="0.15"/>
<path d="M163.294 94.6092C181.419 95.6072 197.477 103.474 210.975 114.218C217.744 119.607 223.773 125.992 228.746 133.149C233.788 140.263 237.684 148.342 239.579 157.293C231.291 153.166 224.688 148.312 217.963 143.69C211.408 138.94 205.14 134.124 198.928 129.154C192.75 124.145 186.737 118.971 180.723 113.429C174.806 107.767 168.708 102.125 163.294 94.6092Z" fill="#2E3617" fill-opacity="0.15"/>
<path d="M133.823 101.932C142.975 104.498 150.456 107.938 157.646 111.739C164.726 115.551 171.365 119.704 177.672 124.186C183.982 128.704 190.029 133.507 195.948 138.838C201.813 144.358 207.711 149.838 213.373 157.622C204.029 159.155 195.022 157.97 186.742 155.313C178.462 152.655 170.673 148.734 163.76 143.728C156.816 138.762 150.574 132.803 145.341 125.967C140.206 119.01 135.764 111.319 133.823 101.932Z" fill="#2E3617" fill-opacity="0.15"/>
<path d="M99.5029 113.443C109.963 115.541 119.313 119.996 128.083 125.212C136.823 130.503 144.868 136.86 152.159 144.068C159.446 151.239 165.819 159.499 171.048 168.394C176.179 177.408 180.048 187.328 181.16 197.904C172.948 191.014 166.147 184.269 159.135 177.62C152.131 171.043 145.41 164.363 138.649 157.651C131.888 150.939 125.22 144.07 118.627 136.862C112.034 129.654 105.559 122.177 99.5029 113.443Z" fill="#2E3617" fill-opacity="0.15"/>
<path d="M55.9673 138.154C66.7773 135.548 77.5623 137.244 87.5545 140.126C97.5657 143.189 106.914 147.976 115.389 153.883C123.767 159.911 131.344 167.052 137.601 175.251C140.814 179.286 143.452 183.786 145.986 188.333C148.313 193.013 150.336 197.945 151.7 203.24C146.402 201.372 141.958 198.899 137.525 196.535C132.992 194.256 129.001 191.552 124.859 189.158C116.762 184.056 109.028 178.915 101.558 173.49C93.9904 168.186 86.6215 162.676 79.1571 156.957C71.6163 151.208 64.2341 145.223 55.9673 138.154Z" fill="#2E3617" fill-opacity="0.15"/>
<path d="M27.8485 158.712C36.2857 155.18 45.0322 155.289 53.2227 156.744C61.4285 158.343 69.2866 161.523 76.1969 166.162C83.1035 170.764 89.261 176.621 93.8557 183.671C98.5478 190.601 101.673 198.688 102.177 207.675C93.5532 204.539 87.1702 200.727 80.7489 197.249C74.5626 193.563 68.6533 190.068 63.0001 186.216C57.3105 182.368 51.686 178.439 45.943 174.082C40.0796 169.627 34.3385 164.939 27.8485 158.712Z" fill="#2E3617" fill-opacity="0.15"/>
<path d="M8.0408 174.869C5.83438 165.4 5.80413 156.731 6.45396 148.247C7.18021 139.793 8.70696 131.621 10.954 123.668C13.201 115.715 16.1684 107.98 19.8923 100.46C23.7251 92.9282 28.1405 85.7025 34.4914 78.3838C37.9856 87.534 38.4535 96.5247 38.1494 105.155C37.7365 113.798 36.3052 122.179 33.997 130.249C31.6927 138.355 28.5152 146.186 24.4245 153.708C20.2535 161.165 15.326 168.408 8.0408 174.869Z" fill="#2E3617" fill-opacity="0.15"/>
<path d="M60.448 133.641C55.3166 122.531 54.1056 111.01 54.4211 99.6954C54.8857 88.4019 57.2685 77.2008 61.3612 66.5549C65.4539 55.9091 71.7113 45.9543 79.5812 37.3735C87.5351 28.8941 97.7128 22.0183 109.415 19.1715C105.808 30.9423 102.005 40.1613 98.5966 49.6328C95.2204 59.0642 91.678 67.9619 88.126 77.1178C84.5702 86.2373 80.7239 95.3875 76.3848 104.736C71.9768 114.129 67.2098 123.596 60.448 133.641Z" fill="#2E3617" fill-opacity="0.15"/>
<path d="M96.1581 114.418C94.8325 102.504 97.1255 91.4963 100.624 81.1334C104.272 70.7915 109.535 61.1617 116.1 52.3873C122.705 43.6455 130.885 35.9141 140.22 29.7516C149.679 23.723 160.593 19.3054 172.486 18.9741C166.849 29.5985 161.364 37.8184 155.886 46.1111C150.481 54.3961 144.869 62.1149 139.004 69.8603C133.174 77.602 126.919 85.1311 120.071 92.6123C113.111 100.069 105.732 107.385 96.1581 114.418Z" fill="#2E3617" fill-opacity="0.15"/>
<path d="M148.532 95.5742C149.902 83.8181 154.761 73.8266 160.747 64.7824C166.853 55.8357 174.505 47.9761 183.29 41.4672C192.115 34.9908 202.326 30.1694 213.153 27.3778C224.035 24.7641 235.875 24.6221 246.807 28.7647C237.785 36.5111 230.114 42.0946 222.55 47.9974C215.095 53.8889 207.735 59.2925 200.202 64.7879C192.672 70.3197 184.902 75.6564 176.568 80.8685C168.125 86.092 159.332 91.1318 148.532 95.5742Z" fill="#2E3617" fill-opacity="0.15"/>
<path d="M213.423 89.6711C215.68 82.8562 219.631 77.1493 224.083 72.0145C228.615 66.9448 233.877 62.5334 239.658 58.8758C245.44 55.2181 251.909 52.517 258.594 50.8222C265.323 49.1962 272.556 48.877 279.423 50.6541C273.546 54.7995 268.147 57.9026 262.89 61.3213L247.258 71.1222C242.059 74.3879 236.744 77.5923 231.24 80.7432C225.695 83.8615 220.002 86.9586 213.423 89.6711Z" fill="#2E3617" fill-opacity="0.15"/>
<path d="M303.756 113.506C299.203 115.234 294.505 115.581 289.903 115.44C285.292 115.227 280.722 114.347 276.313 112.9C271.903 111.453 267.704 109.211 263.887 106.416C260.138 103.576 256.822 99.9557 254.783 95.5765C259.476 96.9207 263.417 98.4541 267.481 99.7541L279.393 103.794C287.318 106.562 295.256 109.108 303.756 113.506Z" fill="#2E3617" fill-opacity="0.15"/>
</svg>
