<svg width="119" height="47" viewBox="0 0 119 47" fill="none" xmlns="http://www.w3.org/2000/svg">
<path d="M119 36.2601C119 36.458 118.988 36.6673 118.966 36.888H113.956C113.994 37.5046 114.204 37.988 114.585 38.3381C114.974 38.6807 115.443 38.8519 115.992 38.8519C116.442 38.8519 116.815 38.7492 117.113 38.5436C117.418 38.3305 117.631 38.0489 117.753 37.6987H118.874C118.706 38.3001 118.371 38.791 117.868 39.1716C117.364 39.5446 116.739 39.7311 115.992 39.7311C115.397 39.7311 114.863 39.5979 114.39 39.3315C113.925 39.0651 113.559 38.6883 113.292 38.2011C113.026 37.7063 112.892 37.1354 112.892 36.4884C112.892 35.8414 113.022 35.2743 113.281 34.7871C113.54 34.3 113.902 33.927 114.368 33.6682C114.84 33.4018 115.382 33.2686 115.992 33.2686C116.587 33.2686 117.113 33.398 117.57 33.6568C118.028 33.9156 118.378 34.2733 118.622 34.7301C118.874 35.1792 119 35.6892 119 36.2601ZM117.925 36.0431C117.925 35.6473 117.837 35.3086 117.662 35.0269C117.486 34.7377 117.246 34.5207 116.941 34.3761C116.644 34.2239 116.312 34.1477 115.946 34.1477C115.42 34.1477 114.97 34.3152 114.596 34.6501C114.23 34.9851 114.021 35.4494 113.967 36.0431H117.925Z" fill="#13170A" fill-opacity="0.8"/>
<path d="M105.944 36.4884C105.944 35.8414 106.074 35.2781 106.333 34.7986C106.592 34.3114 106.951 33.9346 107.408 33.6682C107.874 33.4018 108.403 33.2686 108.998 33.2686C109.768 33.2686 110.401 33.455 110.897 33.828C111.4 34.201 111.732 34.7186 111.892 35.3809H110.771C110.664 35.0003 110.455 34.6996 110.142 34.4789C109.837 34.2581 109.456 34.1477 108.998 34.1477C108.403 34.1477 107.923 34.3533 107.557 34.7643C107.191 35.1677 107.008 35.7424 107.008 36.4884C107.008 37.242 107.191 37.8243 107.557 38.2354C107.923 38.6464 108.403 38.8519 108.998 38.8519C109.456 38.8519 109.837 38.7454 110.142 38.5322C110.447 38.3191 110.657 38.0146 110.771 37.6188H111.892C111.724 38.2582 111.389 38.772 110.886 39.1602C110.382 39.5408 109.753 39.7311 108.998 39.7311C108.403 39.7311 107.874 39.5979 107.408 39.3315C106.951 39.0651 106.592 38.6883 106.333 38.2011C106.074 37.7139 105.944 37.143 105.944 36.4884Z" fill="#13170A" fill-opacity="0.8"/>
<path d="M102.071 33.2559C102.834 33.2559 103.451 33.488 103.924 33.9524C104.397 34.4091 104.633 35.0713 104.633 35.9391V39.6271H103.604V36.0875C103.604 35.4633 103.447 34.9876 103.135 34.6603C102.822 34.3253 102.395 34.1579 101.854 34.1579C101.305 34.1579 100.866 34.3291 100.538 34.6717C100.218 35.0142 100.058 35.5128 100.058 36.1674V39.6271H99.0171V33.37H100.058V34.2606C100.264 33.9409 100.542 33.6935 100.893 33.5185C101.251 33.3434 101.644 33.2559 102.071 33.2559Z" fill="#13170A" fill-opacity="0.8"/>
<path d="M90.8989 36.477C90.8989 35.8376 91.0286 35.2781 91.2878 34.7986C91.5471 34.3114 91.9016 33.9346 92.3515 33.6682C92.8091 33.4018 93.3161 33.2686 93.8728 33.2686C94.4218 33.2686 94.8984 33.3865 95.3025 33.6225C95.7067 33.8585 96.0079 34.1553 96.2061 34.5131V33.3713H97.2584V39.6283H96.2061V38.4637C96.0002 38.8291 95.6914 39.1336 95.2796 39.3771C94.8755 39.6131 94.4027 39.7311 93.8613 39.7311C93.3047 39.7311 92.8014 39.5941 92.3515 39.3201C91.9016 39.046 91.5471 38.6616 91.2878 38.1668C91.0286 37.6721 90.8989 37.1088 90.8989 36.477ZM96.2061 36.4884C96.2061 36.0165 96.1108 35.6054 95.9202 35.2553C95.7295 34.9051 95.4703 34.6387 95.1424 34.456C94.8221 34.2657 94.4675 34.1706 94.0787 34.1706C93.6898 34.1706 93.3352 34.2619 93.0149 34.4446C92.6947 34.6273 92.4392 34.8937 92.2486 35.2439C92.058 35.594 91.9627 36.0051 91.9627 36.477C91.9627 36.9565 92.058 37.3752 92.2486 37.733C92.4392 38.0831 92.6947 38.3533 93.0149 38.5436C93.3352 38.7263 93.6898 38.8177 94.0787 38.8177C94.4675 38.8177 94.8221 38.7263 95.1424 38.5436C95.4703 38.3533 95.7295 38.0831 95.9202 37.733C96.1108 37.3752 96.2061 36.9604 96.2061 36.4884Z" fill="#13170A" fill-opacity="0.8"/>
<path d="M87.0256 33.2559C87.7881 33.2559 88.4058 33.488 88.8785 33.9524C89.3513 34.4091 89.5877 35.0713 89.5877 35.9391V39.6271H88.5583V36.0875C88.5583 35.4633 88.402 34.9876 88.0893 34.6603C87.7767 34.3253 87.3497 34.1579 86.8083 34.1579C86.2593 34.1579 85.8208 34.3291 85.4929 34.6717C85.1727 35.0142 85.0125 35.5128 85.0125 36.1674V39.6271H83.9717V33.37H85.0125V34.2606C85.2184 33.9409 85.4967 33.6935 85.8475 33.5185C86.2059 33.3434 86.5986 33.2559 87.0256 33.2559Z" fill="#13170A" fill-opacity="0.8"/>
<path d="M82.5976 36.2601C82.5976 36.458 82.5861 36.6673 82.5633 36.888H77.5535C77.5916 37.5046 77.8013 37.988 78.1826 38.3381C78.5714 38.6807 79.0404 38.8519 79.5894 38.8519C80.0393 38.8519 80.4129 38.7492 80.7103 38.5436C81.0153 38.3305 81.2288 38.0489 81.3509 37.6987H82.4718C82.304 38.3001 81.9685 38.791 81.4652 39.1716C80.962 39.5446 80.3367 39.7311 79.5894 39.7311C78.9946 39.7311 78.4609 39.5979 77.9881 39.3315C77.523 39.0651 77.157 38.6883 76.8901 38.2011C76.6232 37.7063 76.4897 37.1354 76.4897 36.4884C76.4897 35.8414 76.6194 35.2743 76.8786 34.7871C77.1379 34.3 77.5001 33.927 77.9652 33.6682C78.438 33.4018 78.9794 33.2686 79.5894 33.2686C80.1842 33.2686 80.7103 33.398 81.1678 33.6568C81.6254 33.9156 81.9761 34.2733 82.2201 34.7301C82.4718 35.1792 82.5976 35.6892 82.5976 36.2601ZM81.5224 36.0431C81.5224 35.6473 81.4347 35.3086 81.2593 35.0269C81.084 34.7377 80.8438 34.5207 80.5388 34.3761C80.2414 34.2239 79.9097 34.1477 79.5437 34.1477C79.0175 34.1477 78.5676 34.3152 78.194 34.6501C77.828 34.9851 77.6183 35.4494 77.5649 36.0431H81.5224Z" fill="#13170A" fill-opacity="0.8"/>
<path d="M73.9818 34.226V37.914C73.9818 38.2184 74.0467 38.4354 74.1763 38.5648C74.3059 38.6866 74.5309 38.7475 74.8511 38.7475H75.6175V39.6266H74.6796C74.1 39.6266 73.6654 39.4934 73.3756 39.227C73.0859 38.9606 72.941 38.5229 72.941 37.914V34.226H72.1289V33.3696H72.941V31.7939H73.9818V33.3696H75.6175V34.226H73.9818Z" fill="#13170A" fill-opacity="0.8"/>
<path d="M68.4499 33.2559C69.2124 33.2559 69.8301 33.488 70.3029 33.9524C70.7756 34.4091 71.012 35.0713 71.012 35.9391V39.6271H69.9826V36.0875C69.9826 35.4633 69.8263 34.9876 69.5136 34.6603C69.201 34.3253 68.774 34.1579 68.2326 34.1579C67.6836 34.1579 67.2451 34.3291 66.9172 34.6717C66.597 35.0142 66.4368 35.5128 66.4368 36.1674V39.6271H65.396V33.37H66.4368V34.2606C66.6427 33.9409 66.921 33.6935 67.2718 33.5185C67.6302 33.3434 68.0229 33.2559 68.4499 33.2559Z" fill="#13170A" fill-opacity="0.8"/>
<path d="M63.1188 32.3543C62.9206 32.3543 62.7528 32.2858 62.6156 32.1488C62.4783 32.0118 62.4097 31.8443 62.4097 31.6464C62.4097 31.4485 62.4783 31.281 62.6156 31.144C62.7528 31.007 62.9206 30.9385 63.1188 30.9385C63.3094 30.9385 63.4696 31.007 63.5992 31.144C63.7365 31.281 63.8051 31.4485 63.8051 31.6464C63.8051 31.8443 63.7365 32.0118 63.5992 32.1488C63.4696 32.2858 63.3094 32.3543 63.1188 32.3543ZM63.6221 33.3705V39.6275H62.5812V33.3705H63.6221Z" fill="#13170A" fill-opacity="0.8"/>
<path d="M54.4629 36.477C54.4629 35.8376 54.5925 35.2781 54.8518 34.7986C55.111 34.3114 55.4656 33.9346 55.9155 33.6682C56.373 33.4018 56.8801 33.2686 57.4367 33.2686C57.9858 33.2686 58.4623 33.3865 58.8665 33.6225C59.2706 33.8585 59.5718 34.1553 59.7701 34.5131V33.3713H60.8224V39.6283H59.7701V38.4637C59.5642 38.8291 59.2554 39.1336 58.8436 39.3771C58.4395 39.6131 57.9667 39.7311 57.4253 39.7311C56.8687 39.7311 56.3654 39.5941 55.9155 39.3201C55.4656 39.046 55.111 38.6616 54.8518 38.1668C54.5925 37.6721 54.4629 37.1088 54.4629 36.477ZM59.7701 36.4884C59.7701 36.0165 59.6748 35.6054 59.4841 35.2553C59.2935 34.9051 59.0342 34.6387 58.7063 34.456C58.3861 34.2657 58.0315 34.1706 57.6426 34.1706C57.2537 34.1706 56.8992 34.2619 56.5789 34.4446C56.2586 34.6273 56.0032 34.8937 55.8126 35.2439C55.6219 35.594 55.5266 36.0051 55.5266 36.477C55.5266 36.9565 55.6219 37.3752 55.8126 37.733C56.0032 38.0831 56.2586 38.3533 56.5789 38.5436C56.8992 38.7263 57.2537 38.8177 57.6426 38.8177C58.0315 38.8177 58.3861 38.7263 58.7063 38.5436C59.0342 38.3533 59.2935 38.0831 59.4841 37.733C59.6748 37.3752 59.7701 36.9604 59.7701 36.4884Z" fill="#13170A" fill-opacity="0.8"/>
<path d="M53.0866 31.7266V39.6278H52.0457V33.7361L49.415 39.6278H48.683L46.0408 33.7247V39.6278H45V31.7266H46.1209L49.049 38.2576L51.9771 31.7266H53.0866Z" fill="#13170A" fill-opacity="0.8"/>
<path d="M118.162 10.9658L111.074 27.9214H108.6L110.948 22.3114L106.398 10.9658H109.061L112.311 19.7576L115.687 10.9658H118.162Z" fill="#303427"/>
<path d="M105.408 16.4511C105.408 16.8837 105.38 17.2745 105.325 17.6234H96.4964C96.5663 18.5444 96.9088 19.284 97.5239 19.8423C98.139 20.4005 98.8939 20.6796 99.7886 20.6796C101.075 20.6796 101.983 20.1423 102.515 19.0677H105.094C104.744 20.1283 104.108 21.0005 103.186 21.6843C102.277 22.3542 101.145 22.6891 99.7886 22.6891C98.6842 22.6891 97.6916 22.4449 96.8109 21.9565C95.9442 21.4541 95.2592 20.7563 94.7559 19.8632C94.2666 18.9561 94.022 17.9095 94.022 16.7233C94.022 15.5371 94.2596 14.4974 94.7349 13.6043C95.2242 12.6972 95.9022 11.9994 96.769 11.511C97.6497 11.0225 98.6562 10.7783 99.7886 10.7783C100.879 10.7783 101.851 11.0156 102.703 11.49C103.556 11.9645 104.22 12.6344 104.695 13.4996C105.171 14.3509 105.408 15.3347 105.408 16.4511ZM102.913 15.6975C102.899 14.8184 102.585 14.1136 101.969 13.5833C101.354 13.053 100.592 12.7879 99.6837 12.7879C98.8589 12.7879 98.153 13.053 97.5658 13.5833C96.9787 14.0997 96.6292 14.8044 96.5173 15.6975H102.913Z" fill="#303427"/>
<path d="M87.203 20.3647L90.4743 10.9658H93.0116L88.608 22.4998H85.7562L81.3735 10.9658H83.9318L87.203 20.3647Z" fill="#303427"/>
<path d="M77.0795 12.6413C77.429 12.0552 77.8903 11.6017 78.4635 11.2807C79.0506 10.9458 79.7426 10.7783 80.5394 10.7783V13.2484H79.9313C78.9947 13.2484 78.2817 13.4856 77.7924 13.9601C77.3171 14.4346 77.0795 15.258 77.0795 16.4302V22.5007H74.689V10.9667H77.0795V12.6413Z" fill="#303427"/>
<path d="M59.6802 16.6814C59.6802 15.5231 59.9178 14.4974 60.3931 13.6043C60.8824 12.7111 61.5395 12.0203 62.3643 11.5319C63.203 11.0295 64.1257 10.7783 65.1322 10.7783C66.0409 10.7783 66.8308 10.9597 67.5018 11.3226C68.1868 11.6715 68.732 12.111 69.1374 12.6413V10.9667H71.5489V22.5007H69.1374V20.7842C68.732 21.3285 68.1798 21.782 67.4808 22.1449C66.7818 22.5077 65.985 22.6891 65.0903 22.6891C64.0977 22.6891 63.1891 22.4379 62.3643 21.9355C61.5395 21.4192 60.8824 20.7075 60.3931 19.8004C59.9178 18.8793 59.6802 17.8397 59.6802 16.6814ZM69.1374 16.7233C69.1374 15.9278 68.9696 15.237 68.6341 14.6509C68.3126 14.0648 67.8862 13.6182 67.355 13.3112C66.8238 13.0042 66.2506 12.8507 65.6355 12.8507C65.0204 12.8507 64.4472 13.0042 63.916 13.3112C63.3848 13.6043 62.9514 14.0438 62.6159 14.63C62.2944 15.2021 62.1336 15.8859 62.1336 16.6814C62.1336 17.4768 62.2944 18.1746 62.6159 18.7747C62.9514 19.3748 63.3848 19.8353 63.916 20.1562C64.4612 20.4633 65.0344 20.6168 65.6355 20.6168C66.2506 20.6168 66.8238 20.4633 67.355 20.1562C67.8862 19.8492 68.3126 19.4027 68.6341 18.8165C68.9696 18.2165 69.1374 17.5187 69.1374 16.7233Z" fill="#303427"/>
<path d="M57.3299 7.95215V22.5005H54.9394V16.1369H48.0824V22.5005H45.6919V7.95215H48.0824V14.1901H54.9394V7.95215H57.3299Z" fill="#303427"/>
<path fill-rule="evenodd" clip-rule="evenodd" d="M0 27.6934C0 27.6934 0.293698 28.2491 0.881095 28.2491H6.25178C6.25178 28.2491 13.944 28.2491 18 36.4782V36.8881C18 36.8881 15.7345 40.7216 17.8881 46.9995C17.8881 46.9995 0.000288914 47.0825 0.000288914 27.9161L0 27.6934Z" fill="#2E3617"/>
<path fill-rule="evenodd" clip-rule="evenodd" d="M38.0003 27.6934C38.0003 27.6934 37.7066 28.2491 37.1189 28.2491H31.7485C31.7485 28.2491 24.0566 28.2491 20 36.4782V36.8881C20 36.8881 22.266 40.7216 20.1122 46.9995C20.1122 46.9995 38.0003 47.0825 38.0003 27.9161V27.6934Z" fill="#2E3617"/>
<path d="M19.3077 32.9166C19.3077 32.9166 18.9996 33.2496 18.9996 33.6526C18.9996 33.2493 18.692 32.9166 18.692 32.9166C18.692 32.9166 12.4824 25.9721 12.4824 16.6528C12.4824 7.1388 18.664 0.916894 18.7758 0.708483C18.8877 0.500072 18.9996 0 18.9996 0C18.9996 0 19.1117 0.500072 19.2236 0.708483C19.3352 0.916607 25.517 7.1388 25.517 16.6528C25.517 25.9721 19.3077 32.9166 19.3077 32.9166Z" fill="#E0A423"/>
</svg>
